<svg width="600" height="637" viewBox="0 0 600 637" fill="none" xmlns="http://www.w3.org/2000/svg">
<path d="M489.333 1.79981C475.066 2.33314 439.6 3.79981 410.666 4.99981C381.733 6.19981 350.266 7.53315 340.666 7.79981C272.8 10.1998 231.333 12.5998 228.133 14.1998C222.266 17.2665 209.466 27.2665 192 42.1998C182.8 50.1998 163.066 66.5998 148 78.7331C132.933 90.8665 113.733 106.6 105.333 113.666C96.9331 120.733 77.0665 136.866 61.3331 149.666C26.2665 177.933 1.86645 199.666 0.93312 203.266C-0.000213551 206.733 1.59979 211 5.06645 214.2C7.73312 216.466 9.86645 216.6 41.5998 215.666L75.3331 214.733V241.133C75.3331 264.733 75.7331 269.133 78.5331 280.866L81.8665 294.066L78.9331 299.133C69.1998 315.933 74.1331 333.933 90.6664 342.333C99.0664 346.6 103.6 352.2 104.933 360.066C105.466 363.533 106 378.066 106 392.333C106 415.533 105.733 419.533 102.933 429C101.2 434.867 98.3998 442.066 96.6664 445.133C91.8664 453.266 82.2665 461.266 71.0665 466.733C62.9331 470.6 58.9331 471.533 50.3998 472.067C44.6665 472.467 39.7331 473.133 39.3331 473.667C38.2665 475.267 46.5331 483.933 53.7331 488.733C73.5998 501.933 98.1331 500.2 124.8 483.667C154.933 464.866 168.4 435.267 160.666 405C156.4 388.6 142.4 356.466 132.533 340.333L128 332.866L130.666 325.266C133.733 316.6 133.866 314.866 131.866 307.933C130.133 301.266 123.333 293.8 116.533 290.733C113.466 289.4 110.266 287.533 109.466 286.466C107.466 284.066 101.466 252.6 101.333 244.466C101.333 235.4 104 221.933 106.533 218.866C108.533 216.466 111.733 215.8 133.6 213.666C170.533 209.933 190.266 208.6 245.866 206.2C288.666 204.466 297.6 203.666 303.2 201.533C308.133 199.8 318.533 191.933 340 174.066C356.533 160.2 386 136.066 405.333 120.333C477.6 61.6665 532.266 15.7998 533.466 12.7331C534.933 8.86648 533.066 3.66648 529.466 1.79981C528 0.999811 524.266 0.466478 521.066 0.599811C517.866 0.733145 503.6 1.26648 489.333 1.79981Z" fill="white"/>
<path d="M454.133 103.266C452.8 104.066 420.133 129.8 381.733 160.466C343.2 191.266 310.667 217 309.333 217.666C307.2 218.733 214.4 225.133 164.667 227.666C136.933 229 132.133 229.666 131.333 232.066C130.267 235.666 134.267 255.8 138.8 269.4C143.733 284.333 155.2 307.266 165.6 323.266C174.667 337.133 173.067 336.466 207.333 339.8C251.067 343.933 292.8 339 337.733 324.333C382.933 309.666 416 289.666 448.8 257C466.933 239 490.267 209.533 493.733 200.2C495.733 195 490.133 175.933 477.2 143.666C465.467 114.333 460 102.6 458 102.066C457.333 101.933 455.6 102.466 454.133 103.266Z" fill="white"/>
<path d="M511.866 213.933C509.733 216.333 503.066 224.6 497.199 232.333C491.199 240.067 478.266 254.333 468.399 263.933L450.399 281.667H455.466C473.999 281.533 523.999 275.133 542.399 270.467C549.466 268.733 560.266 265.933 566.399 264.467C580.266 261 591.066 255.8 596.133 250.067C600.666 244.733 600.933 242.733 597.466 237.8C590.533 228.2 580.266 223.933 545.999 216.333C531.999 213.267 519.599 210.467 518.266 210.067C516.666 209.667 514.533 210.867 511.866 213.933Z" fill="white"/>
<path d="M592.533 272.466C584.667 278.733 582.4 279.533 556.667 286.733C538.667 291.8 527.867 293.933 513.333 295.533C493.6 297.666 448.133 301.266 431.333 301.933C422.667 302.333 420.933 303 408 310.466C366.533 334.733 330.933 347.533 281.733 355.933C271.733 357.533 258.8 358.2 226 358.333C195.067 358.6 183.333 359.133 182.933 360.2C182.667 361 185.067 364.333 188.267 367.533C197.6 376.866 225.467 386.333 257.067 391C334.8 402.2 430.4 403 511.467 393C557.467 387.266 592 375.8 598 364.2C599.6 361.133 600 352.2 600 315.133C600 290.2 599.467 269.533 598.8 269.133C598.133 268.733 595.333 270.2 592.533 272.466Z" fill="white"/>
<path d="M592.266 390.866C587.066 394.866 580.399 397.8 566.933 402.2C545.733 409.133 536.799 410.733 491.333 416.333C459.733 420.066 455.333 420.333 409.999 420.333C299.599 420.066 250.133 415 207.866 399.266C200.133 396.333 191.199 392.333 188.266 390.466L182.666 387V432.333C182.666 481 182.799 481.533 189.599 487.933C195.866 493.8 219.333 502.2 242.266 506.866C249.466 508.333 271.866 511.4 291.999 513.666L328.666 517.933L399.333 517.266C477.066 516.6 496.533 515.266 530.666 508.333C554.933 503.4 571.066 498.866 583.333 493.133C593.599 488.466 598.133 483.8 599.333 477.133C599.733 474.866 599.866 453.4 599.733 429.266L599.333 385.666L592.266 390.866Z" fill="white"/>
<path d="M182.666 552.2C182.666 601.933 182.799 602.733 190.399 608.067C196.133 612.333 216.666 620.333 229.999 623.667C236.533 625.4 249.466 627.667 258.666 628.867C267.866 629.933 285.866 632.333 298.666 633.933C320.399 636.733 326.933 637 391.333 637C464.666 637 463.066 637.133 516.666 629.533C551.199 624.733 567.599 620.733 581.999 613.667C600.266 604.867 599.199 608.333 599.733 553.267C599.999 518.067 599.733 507 598.533 507C597.599 507 594.933 508.467 592.533 510.333C578.933 520.733 553.733 527.533 505.999 533.667C461.599 539.4 441.999 540.2 379.999 539C302.533 537.267 286.799 536.6 267.333 533.533C247.333 530.467 240.399 528.867 216.666 521.4C199.066 515.933 192.933 513.4 186.399 509.133L182.666 506.733V552.2Z" fill="white"/>
</svg>
